# xmcd CD database file
#
# Track frame offsets:
#	150
#	42052
#	64810
#	92762
#
# Disc length: 1436 seconds
#
# Revision: 0
# Processed by: cddbd v1.5.1PL0 Copyright (c) Steve Scherf et al.
# Submitted via: CDex 1.51
#
DISCID=2b059a04
DTITLE=SUGIURUMN - Night Music
DYEAR=2001
DGENRE=House
TTITLE0=Night Music feat. Junpei Shiina (Full Length 12'' Version)
TTITLE1=FOR SPACIOUS feat. CUVA CUVA
TTITLE2=Night Music feat. Junpei Shiina (KAGAMI'S rim and clap remix)
TTITLE3=Night Music feat. Junpei Shiina (Radio Edit)
EXTD=YEAR: 2001
EXTT0=
EXTT1=
EXTT2=
EXTT3=
PLAYORDER=
